HIERARCHY
ROOT Hips
{
 OFFSET 0.000000 0.000000 0.000000
 CHANNELS 6 Xposition Yposition Zposition Yrotation Xrotation Zrotation
 JOINT Chest
 {
  OFFSET 0.000000 9.585900 0.002600
  CHANNELS 3 Yrotation Xrotation Zrotation
  JOINT Chest2
  {
   OFFSET 0.000000 9.601200 -0.005300
   CHANNELS 3 Yrotation Xrotation Zrotation
   JOINT Chest3
   {
    OFFSET 0.000000 9.561800 0.000000
    CHANNELS 3 Yrotation Xrotation Zrotation
    JOINT Chest4
    {
     OFFSET 0.000000 9.552100 0.000000
     CHANNELS 3 Yrotation Xrotation Zrotation
     JOINT Neck
     {
      OFFSET 0.000000 14.453000 0.000000
      CHANNELS 3 Yrotation Xrotation Zrotation
      JOINT Head
      {
       OFFSET 0.000000 8.936500 -0.011300
       CHANNELS 3 Yrotation Xrotation Zrotation
       End Site
       {
        OFFSET 0.000000 17.073600 -0.006000
       }
      }
     }
     JOINT RightCollar
     {
      OFFSET -2.921100 9.558500 0.000000
      CHANNELS 3 Yrotation Xrotation Zrotation
      JOINT RightShoulder
      {
       OFFSET -13.519700 0.000000 0.000000
       CHANNELS 3 Yrotation Xrotation Zrotation
       JOINT RightElbow
       {
        OFFSET 0.000000 -29.696600 0.000000
        CHANNELS 3 Yrotation Xrotation Zrotation
        JOINT RightWrist
        {
         OFFSET 0.000000 -24.004700 0.000000
         CHANNELS 3 Yrotation Xrotation Zrotation
         End Site
         {
          OFFSET 0.000000 -17.728500 0.000000
         }
        }
       }
      }
     }
     JOINT LeftCollar
     {
      OFFSET 2.921100 9.558500 0.000000
      CHANNELS 3 Yrotation Xrotation Zrotation
      JOINT LeftShoulder
      {
       OFFSET 13.519700 0.000000 0.000000
       CHANNELS 3 Yrotation Xrotation Zrotation
       JOINT LeftElbow
       {
        OFFSET 0.000000 -29.696600 0.000000
        CHANNELS 3 Yrotation Xrotation Zrotation
        JOINT LeftWrist
        {
         OFFSET 0.000000 -24.004700 0.000000
         CHANNELS 3 Yrotation Xrotation Zrotation
         End Site
         {
          OFFSET 0.000000 -17.728500 0.000000
         }
        }
       }
      }
     }
    }
   }
  }
 }
 JOINT RightHip
 {
  OFFSET -7.771700 -0.012900 -0.001300
  CHANNELS 3 Yrotation Xrotation Zrotation
  JOINT RightKnee
  {
   OFFSET 0.000000 -40.869800 0.001200
   CHANNELS 3 Yrotation Xrotation Zrotation
   JOINT RightAnkle
   {
    OFFSET 0.000000 -39.717900 0.002100
    CHANNELS 3 Yrotation Xrotation Zrotation
    JOINT RightToe
    {
     OFFSET 0.000000 -4.965400 11.033500
     CHANNELS 3 Yrotation Xrotation Zrotation
     End Site
     {
      OFFSET 0.000000 -1.423100 5.872300
     }
    }
   }
  }
 }
 JOINT LeftHip
 {
  OFFSET 7.771700 -0.012900 -0.001300
  CHANNELS 3 Yrotation Xrotation Zrotation
  JOINT LeftKnee
  {
   OFFSET 0.000000 -40.869800 0.001200
   CHANNELS 3 Yrotation Xrotation Zrotation
   JOINT LeftAnkle
   {
    OFFSET 0.000000 -39.717900 0.002100
    CHANNELS 3 Yrotation Xrotation Zrotation
    JOINT LeftToe
    {
     OFFSET 0.000000 -4.965400 11.033500
     CHANNELS 3 Yrotation Xrotation Zrotation
     End Site
     {
      OFFSET 0.000000 -1.423100 5.872300
     }
    }
   }
  }
 }
}
MOTION
Frames: 5
Frame Time: 0.008333
0.000000 85.388000 0.000000 0.000000 -5.767877 0.000000 0.000000 11.653817 0.000000 0.000000 -5.885947 0.000000 0.000000 -0.000000 0.000000 0.000000 -0.000000 0.000000 0.000000 12.528835 0.000000 0.000000 0.711642 0.000000 0.000000 -0.000000 0.000000 0.000000 0.000000 -90.000000 0.000000 -2.309062 0.000000 0.000000 2.309062 0.000000 0.000000 -0.000000 0.000000 0.000000 -0.000000 90.000000 0.000000 -2.309062 0.000000 0.000000 2.309062 0.000000 0.000000 8.520406 0.000000 0.000000 1.905762 0.000000 -0.000000 -4.658285 0.000000 0.000000 -0.000000 0.000000 0.000000 8.520406 0.000000 0.000000 1.905762 0.000000 -0.000000 -4.658285 0.000000 0.000000 -0.000000 0.000000
-2.478401 49.979488 29.009666 173.189303 -30.073486 -6.742524 8.027803 19.602633 8.233075 0.899715 2.716191 0.836292 1.488772 4.409370 1.381134 6.549878 16.698172 6.061156 -3.027267 13.271667 1.868740 -6.472098 -10.974036 4.741971 0.944243 -1.592769 -6.526141 8.469963 -16.331563 -23.502291 52.290810 -80.336251 -58.260418 12.670075 2.384202 40.813906 -12.894937 -5.219055 -0.718833 -5.644416 -18.007571 14.906615 -113.704492 -54.960655 111.336943 10.224776 -14.513700 -3.462922 -1.983860 -49.703853 11.465941 -129.394787 82.439045 -117.054495 0.033606 -15.716846 -4.767505 -0.362292 0.969535 -0.195179 -9.196777 -54.111249 16.391008 -162.434434 81.331730 -169.318199 0.536771 -16.029680 7.497068 -0.011992 -0.156375 0.014527
-2.477372 49.981077 29.020807 173.167915 -30.072629 -6.753073 8.002339 19.579390 8.238113 0.919144 2.725135 0.835496 1.447540 4.385027 1.374375 6.497232 16.677920 6.048533 -2.974335 13.298923 1.851868 -6.370550 -10.924497 4.693984 0.851578 -1.525738 -6.550251 8.187045 -15.783307 -23.057119 57.827659 -81.376915 -63.293359 12.632499 1.977967 42.150918 -12.794362 -5.140759 -0.750759 -5.390697 -17.760847 14.628500 -113.380134 -54.896504 111.109285 10.129985 -14.384421 -3.687481 -2.002186 -49.702994 11.495296 -129.217716 82.437733 -116.874351 0.047085 -15.702052 -4.760288 -0.354653 0.969580 -0.200932 -9.196705 -54.112457 16.426564 -162.299242 81.337850 -169.179521 0.544971 -16.024090 7.500474 -0.011754 -0.151167 0.008487
-2.477553 49.983869 29.032315 173.139926 -30.081294 -6.756160 7.973431 19.564927 8.234031 0.851819 2.689830 0.824504 1.498673 4.409327 1.374553 6.470194 16.671475 6.037122 -2.910666 13.334353 1.840495 -6.318228 -10.918770 4.660750 0.740395 -1.477490 -6.574469 7.893813 -15.256055 -22.596615 64.580130 -82.274975 -69.517067 12.600208 1.525288 43.453349 -12.707032 -5.084194 -0.770493 -5.092835 -17.504429 14.333288 -113.171571 -54.970135 110.915445 10.057640 -14.233130 -3.968623 -2.009605 -49.693715 11.519299 -129.037665 82.436625 -116.696313 0.060753 -15.688917 -4.741885 -0.348321 0.971909 -0.211791 -9.186041 -54.103296 16.450686 -162.242868 81.348846 -169.119651 0.548625 -16.014072 7.504169 -0.012730 -0.150346 0.002412
-2.468633 49.984305 29.054100 173.013756 -30.050377 -6.775520 7.975295 19.478790 8.257803 0.903196 2.710298 0.828265 1.490713 4.402410 1.370294 6.471735 16.676047 6.031166 -2.868434 13.353150 1.832723 -6.270527 -10.921028 4.628888 0.603178 -1.461766 -6.597107 7.613517 -14.724157 -22.129299 72.603391 -83.007744 -77.010082 12.569701 1.032690 44.709319 -12.664427 -5.030532 -0.780878 -4.736180 -17.257126 14.028083 -113.054983 -55.174500 110.743083 10.015989 -14.085695 -4.262126 -2.086581 -49.727521 11.686399 -128.679772 82.443825 -116.376525 0.147020 -15.661674 -4.737902 -0.400466 0.992015 -0.234230 -9.198642 -54.137840 16.609803 -162.082264 81.343928 -168.950838 0.572057 -16.010262 7.503014 -0.020996 -0.150290 -0.003992
